<?xml version="1.0" standalone="no"?>
<!DOCTYPE svg PUBLIC "-//W3C//DTD SVG 20010904//EN"
 "http://www.w3.org/TR/2001/REC-SVG-20010904/DTD/svg10.dtd">
<svg version="1.0" xmlns="http://www.w3.org/2000/svg"
 width="640.000000pt" height="640.000000pt" viewBox="0 0 640.000000 640.000000"
 preserveAspectRatio="xMidYMid meet">
<metadata>
Created by potrace 1.11, written by Peter Selinger 2001-2013
</metadata>
<g transform="translate(0.000000,640.000000) scale(0.100000,-0.100000)"
fill="#000000" stroke="none">
<path d="M4855 6390 c-4 -6 -25 -20 -48 -31 -54 -27 -113 -84 -138 -131 -10
-20 -29 -52 -41 -71 -13 -19 -32 -50 -43 -68 -11 -18 -27 -43 -35 -55 -8 -12
-30 -48 -49 -80 -19 -33 -53 -87 -75 -121 -23 -33 -54 -84 -71 -113 -16 -28
-35 -57 -41 -64 -6 -7 -19 -28 -29 -46 -10 -19 -26 -46 -35 -60 -9 -14 -33
-50 -52 -80 -19 -30 -53 -82 -74 -115 -21 -33 -49 -78 -61 -100 -12 -23 -41
-71 -65 -108 -23 -36 -65 -102 -93 -147 -27 -44 -77 -122 -110 -173 l-60 -92
-305 -6 c-302 -6 -342 -10 -430 -44 -112 -43 -137 -53 -165 -64 -16 -7 -46
-19 -65 -26 -19 -7 -57 -22 -85 -33 -27 -11 -81 -32 -120 -47 -38 -14 -91 -35
-117 -46 -27 -10 -72 -28 -100 -40 -29 -12 -72 -30 -96 -40 -23 -10 -48 -19
-55 -19 -6 0 -34 -11 -61 -25 -49 -25 -92 -31 -111 -17 -13 9 -115 159 -115
168 0 4 -7 16 -17 26 -9 10 -21 26 -27 36 -6 10 -20 33 -31 51 -38 63 -204
316 -224 343 -12 14 -21 30 -21 36 0 5 -9 17 -20 27 -11 10 -20 22 -20 26 0
22 -69 103 -110 129 -43 28 -65 35 -140 46 -57 9 -137 -27 -200 -91 l-55 -56
-3 -98 c-4 -111 6 -140 93 -264 25 -36 45 -68 45 -72 0 -3 6 -12 12 -19 7 -7
56 -79 108 -159 438 -675 461 -704 566 -735 73 -21 81 -20 257 49 28 11 70 26
92 34 22 8 119 46 215 85 254 102 326 126 344 111 12 -10 15 -85 15 -499 l1
-487 610 -5 c528 -4 612 -7 620 -20 16 -25 12 -163 -6 -188 l-15 -22 -609 0
c-334 0 -615 -3 -624 -6 -9 -3 -16 -11 -16 -16 0 -13 -64 -164 -116 -276 -24
-51 -44 -97 -44 -102 0 -5 -13 -38 -29 -72 -16 -35 -42 -94 -59 -133 -17 -38
-51 -114 -76 -168 -25 -55 -46 -102 -46 -107 0 -5 -16 -42 -35 -83 -19 -41
-35 -77 -35 -80 0 -3 -13 -35 -30 -70 -16 -36 -30 -68 -30 -72 0 -3 -20 -48
-45 -99 -25 -52 -45 -99 -45 -105 0 -6 -13 -39 -29 -73 -16 -35 -47 -103 -69
-153 -22 -49 -57 -125 -76 -169 -20 -43 -36 -82 -36 -87 0 -4 -13 -36 -29 -71
-16 -35 -46 -101 -66 -148 -21 -47 -41 -89 -46 -95 -5 -5 -9 -17 -9 -27 0 -10
-4 -26 -9 -36 -34 -67 -40 -160 -16 -230 44 -127 98 -189 212 -246 39 -19 74
-40 78 -46 8 -13 119 -13 143 0 9 5 34 17 56 26 48 22 101 76 131 134 12 25
66 146 120 270 54 124 105 243 115 265 10 22 48 110 85 195 37 85 75 173 85
195 10 22 39 90 65 150 26 61 55 128 65 150 10 22 48 110 85 195 37 85 94 217
128 293 l60 139 46 -6 c25 -4 91 -9 146 -12 151 -8 183 2 544 173 73 34 135
63 136 63 2 0 68 31 147 68 281 134 308 146 317 136 5 -5 54 -190 109 -410 55
-221 110 -423 123 -449 28 -55 91 -114 154 -144 132 -62 310 -16 395 101 38
53 70 139 70 190 0 42 -308 1298 -337 1377 -22 58 -98 140 -165 176 -47 27
-62 30 -138 30 l-85 0 -312 -148 c-172 -81 -317 -147 -323 -147 -7 0 -10 190
-10 573 l0 572 268 430 c148 237 401 642 562 900 161 259 302 489 312 513 24
53 27 132 9 195 -18 62 -97 151 -149 168 -20 6 -41 15 -46 20 -14 12 -113 11
-121 -1z"/>
<path d="M3265 5823 c-107 -13 -232 -72 -296 -140 -54 -57 -108 -138 -115
-173 -2 -14 -9 -39 -14 -56 -15 -45 -12 -192 4 -245 40 -131 129 -234 257
-298 l81 -41 124 0 c119 0 127 1 187 31 103 52 156 91 192 140 79 110 105 192
100 319 -4 129 -34 202 -126 313 -76 90 -272 165 -394 150z"/>
</g>
</svg>
